<svg id="visual" viewBox="0 0 1920 105" width="1920" height="105" xmlns="http://www.w3.org/2000/svg" xmlns:xlink="http://www.w3.org/1999/xlink" version="1.1"><rect x="0" y="0" width="1920" height="105" fill="#23251c"></rect><path d="M0 76L21.3 76.3C42.7 76.7 85.3 77.3 128 76.7C170.7 76 213.3 74 256 71.7C298.7 69.3 341.3 66.7 384 70.7C426.7 74.7 469.3 85.3 512 90.7C554.7 96 597.3 96 640 95.3C682.7 94.7 725.3 93.3 768 89C810.7 84.7 853.3 77.3 896 78.7C938.7 80 981.3 90 1024 90C1066.7 90 1109.3 80 1152 78C1194.7 76 1237.3 82 1280 81.2C1322.7 80.3 1365.3 72.7 1408 72.5C1450.7 72.3 1493.3 79.7 1536 79.5C1578.7 79.3 1621.3 71.7 1664 74.5C1706.7 77.3 1749.3 90.7 1792 95.7C1834.7 100.7 1877.3 97.3 1898.7 95.7L1920 94L1920 106L1898.7 106C1877.3 106 1834.7 106 1792 106C1749.3 106 1706.7 106 1664 106C1621.3 106 1578.7 106 1536 106C1493.3 106 1450.7 106 1408 106C1365.3 106 1322.7 106 1280 106C1237.3 106 1194.7 106 1152 106C1109.3 106 1066.7 106 1024 106C981.3 106 938.7 106 896 106C853.3 106 810.7 106 768 106C725.3 106 682.7 106 640 106C597.3 106 554.7 106 512 106C469.3 106 426.7 106 384 106C341.3 106 298.7 106 256 106C213.3 106 170.7 106 128 106C85.3 106 42.7 106 21.3 106L0 106Z" fill="#fa7268"></path><path d="M0 83L21.3 84.8C42.7 86.7 85.3 90.3 128 92.8C170.7 95.3 213.3 96.7 256 98.2C298.7 99.7 341.3 101.3 384 97.7C426.7 94 469.3 85 512 80.2C554.7 75.3 597.3 74.7 640 78C682.7 81.3 725.3 88.7 768 93.5C810.7 98.3 853.3 100.7 896 97.7C938.7 94.7 981.3 86.3 1024 82.8C1066.7 79.3 1109.3 80.7 1152 81.2C1194.7 81.7 1237.3 81.3 1280 82.3C1322.7 83.3 1365.3 85.7 1408 88.7C1450.7 91.7 1493.3 95.3 1536 92.7C1578.7 90 1621.3 81 1664 81.3C1706.7 81.7 1749.3 91.3 1792 95.3C1834.7 99.3 1877.3 97.7 1898.7 96.8L1920 96L1920 106L1898.7 106C1877.3 106 1834.7 106 1792 106C1749.3 106 1706.7 106 1664 106C1621.3 106 1578.7 106 1536 106C1493.3 106 1450.7 106 1408 106C1365.3 106 1322.7 106 1280 106C1237.3 106 1194.7 106 1152 106C1109.3 106 1066.7 106 1024 106C981.3 106 938.7 106 896 106C853.3 106 810.7 106 768 106C725.3 106 682.7 106 640 106C597.3 106 554.7 106 512 106C469.3 106 426.7 106 384 106C341.3 106 298.7 106 256 106C213.3 106 170.7 106 128 106C85.3 106 42.7 106 21.3 106L0 106Z" fill="#f66b68"></path><path d="M0 73L21.3 76.8C42.7 80.7 85.3 88.3 128 87.8C170.7 87.3 213.3 78.7 256 79.5C298.7 80.3 341.3 90.7 384 92.8C426.7 95 469.3 89 512 87.2C554.7 85.3 597.3 87.7 640 89.7C682.7 91.7 725.3 93.3 768 91C810.7 88.7 853.3 82.3 896 78.8C938.7 75.3 981.3 74.7 1024 77.3C1066.7 80 1109.3 86 1152 90C1194.7 94 1237.3 96 1280 97.8C1322.7 99.7 1365.3 101.3 1408 99.3C1450.7 97.3 1493.3 91.7 1536 87C1578.7 82.3 1621.3 78.7 1664 80.7C1706.7 82.7 1749.3 90.3 1792 92.2C1834.7 94 1877.3 90 1898.7 88L1920 86L1920 106L1898.7 106C1877.3 106 1834.7 106 1792 106C1749.3 106 1706.7 106 1664 106C1621.3 106 1578.7 106 1536 106C1493.3 106 1450.7 106 1408 106C1365.3 106 1322.7 106 1280 106C1237.3 106 1194.7 106 1152 106C1109.3 106 1066.7 106 1024 106C981.3 106 938.7 106 896 106C853.3 106 810.7 106 768 106C725.3 106 682.7 106 640 106C597.3 106 554.7 106 512 106C469.3 106 426.7 106 384 106C341.3 106 298.7 106 256 106C213.3 106 170.7 106 128 106C85.3 106 42.7 106 21.3 106L0 106Z" fill="#f26467"></path><path d="M0 83L21.3 86.5C42.7 90 85.3 97 128 96C170.7 95 213.3 86 256 84.5C298.7 83 341.3 89 384 88.3C426.7 87.7 469.3 80.3 512 80C554.7 79.7 597.3 86.3 640 88.5C682.7 90.7 725.3 88.3 768 89C810.7 89.7 853.3 93.3 896 93.5C938.7 93.7 981.3 90.3 1024 89C1066.7 87.7 1109.3 88.3 1152 87.5C1194.7 86.7 1237.3 84.3 1280 81.5C1322.7 78.7 1365.3 75.3 1408 74C1450.7 72.7 1493.3 73.3 1536 78.5C1578.7 83.7 1621.3 93.3 1664 93C1706.7 92.7 1749.3 82.3 1792 81.3C1834.7 80.3 1877.3 88.7 1898.7 92.8L1920 97L1920 106L1898.7 106C1877.3 106 1834.7 106 1792 106C1749.3 106 1706.7 106 1664 106C1621.3 106 1578.7 106 1536 106C1493.3 106 1450.7 106 1408 106C1365.3 106 1322.7 106 1280 106C1237.3 106 1194.7 106 1152 106C1109.3 106 1066.7 106 1024 106C981.3 106 938.7 106 896 106C853.3 106 810.7 106 768 106C725.3 106 682.7 106 640 106C597.3 106 554.7 106 512 106C469.3 106 426.7 106 384 106C341.3 106 298.7 106 256 106C213.3 106 170.7 106 128 106C85.3 106 42.7 106 21.3 106L0 106Z" fill="#ee5d67"></path><path d="M0 100L21.3 97.8C42.7 95.7 85.3 91.3 128 91.7C170.7 92 213.3 97 256 97.5C298.7 98 341.3 94 384 92.2C426.7 90.3 469.3 90.7 512 91.5C554.7 92.3 597.3 93.7 640 94.7C682.7 95.7 725.3 96.3 768 97.3C810.7 98.3 853.3 99.7 896 99.3C938.7 99 981.3 97 1024 93.7C1066.7 90.3 1109.3 85.7 1152 85.5C1194.7 85.3 1237.3 89.7 1280 91.3C1322.7 93 1365.3 92 1408 89.2C1450.7 86.3 1493.3 81.7 1536 79.5C1578.7 77.3 1621.3 77.7 1664 82C1706.7 86.3 1749.3 94.7 1792 96C1834.7 97.3 1877.3 91.7 1898.7 88.8L1920 86L1920 106L1898.7 106C1877.3 106 1834.7 106 1792 106C1749.3 106 1706.7 106 1664 106C1621.3 106 1578.7 106 1536 106C1493.3 106 1450.7 106 1408 106C1365.3 106 1322.7 106 1280 106C1237.3 106 1194.7 106 1152 106C1109.3 106 1066.7 106 1024 106C981.3 106 938.7 106 896 106C853.3 106 810.7 106 768 106C725.3 106 682.7 106 640 106C597.3 106 554.7 106 512 106C469.3 106 426.7 106 384 106C341.3 106 298.7 106 256 106C213.3 106 170.7 106 128 106C85.3 106 42.7 106 21.3 106L0 106Z" fill="#ea5667"></path><path d="M0 103L21.3 102.3C42.7 101.7 85.3 100.3 128 97.2C170.7 94 213.3 89 256 89.7C298.7 90.3 341.3 96.7 384 97.2C426.7 97.7 469.3 92.3 512 89.8C554.7 87.3 597.3 87.7 640 88C682.7 88.3 725.3 88.7 768 87.2C810.7 85.7 853.3 82.3 896 83.5C938.7 84.7 981.3 90.3 1024 90.7C1066.7 91 1109.3 86 1152 86.8C1194.7 87.7 1237.3 94.3 1280 96.8C1322.7 99.3 1365.3 97.7 1408 95.2C1450.7 92.7 1493.3 89.3 1536 86.8C1578.7 84.3 1621.3 82.7 1664 84.8C1706.7 87 1749.3 93 1792 95.5C1834.7 98 1877.3 97 1898.7 96.5L1920 96L1920 106L1898.7 106C1877.3 106 1834.7 106 1792 106C1749.3 106 1706.7 106 1664 106C1621.3 106 1578.7 106 1536 106C1493.3 106 1450.7 106 1408 106C1365.3 106 1322.7 106 1280 106C1237.3 106 1194.7 106 1152 106C1109.3 106 1066.7 106 1024 106C981.3 106 938.7 106 896 106C853.3 106 810.7 106 768 106C725.3 106 682.7 106 640 106C597.3 106 554.7 106 512 106C469.3 106 426.7 106 384 106C341.3 106 298.7 106 256 106C213.3 106 170.7 106 128 106C85.3 106 42.7 106 21.3 106L0 106Z" fill="#e54f67"></path><path d="M0 86L21.3 85.3C42.7 84.7 85.3 83.3 128 83.3C170.7 83.3 213.3 84.7 256 86.5C298.7 88.3 341.3 90.7 384 90.3C426.7 90 469.3 87 512 88C554.7 89 597.3 94 640 93.8C682.7 93.7 725.3 88.3 768 86C810.7 83.7 853.3 84.3 896 86.2C938.7 88 981.3 91 1024 92.5C1066.7 94 1109.3 94 1152 93.3C1194.7 92.7 1237.3 91.3 1280 92C1322.7 92.7 1365.3 95.3 1408 97.3C1450.7 99.3 1493.3 100.7 1536 99.5C1578.7 98.3 1621.3 94.7 1664 93.2C1706.7 91.7 1749.3 92.3 1792 92.7C1834.7 93 1877.3 93 1898.7 93L1920 93L1920 106L1898.7 106C1877.3 106 1834.7 106 1792 106C1749.3 106 1706.7 106 1664 106C1621.3 106 1578.7 106 1536 106C1493.3 106 1450.7 106 1408 106C1365.3 106 1322.7 106 1280 106C1237.3 106 1194.7 106 1152 106C1109.3 106 1066.7 106 1024 106C981.3 106 938.7 106 896 106C853.3 106 810.7 106 768 106C725.3 106 682.7 106 640 106C597.3 106 554.7 106 512 106C469.3 106 426.7 106 384 106C341.3 106 298.7 106 256 106C213.3 106 170.7 106 128 106C85.3 106 42.7 106 21.3 106L0 106Z" fill="#e14867"></path><path d="M0 101L21.3 100C42.7 99 85.3 97 128 96.5C170.7 96 213.3 97 256 98C298.7 99 341.3 100 384 98.3C426.7 96.7 469.3 92.3 512 90.2C554.7 88 597.3 88 640 90.5C682.7 93 725.3 98 768 97.5C810.7 97 853.3 91 896 88.2C938.7 85.3 981.3 85.7 1024 88.3C1066.7 91 1109.3 96 1152 98.5C1194.7 101 1237.3 101 1280 100.8C1322.7 100.7 1365.3 100.3 1408 100.2C1450.7 100 1493.3 100 1536 99.8C1578.7 99.7 1621.3 99.3 1664 99.2C1706.7 99 1749.3 99 1792 97.3C1834.7 95.7 1877.3 92.3 1898.7 90.7L1920 89L1920 106L1898.7 106C1877.3 106 1834.7 106 1792 106C1749.3 106 1706.7 106 1664 106C1621.3 106 1578.7 106 1536 106C1493.3 106 1450.7 106 1408 106C1365.3 106 1322.7 106 1280 106C1237.3 106 1194.7 106 1152 106C1109.3 106 1066.7 106 1024 106C981.3 106 938.7 106 896 106C853.3 106 810.7 106 768 106C725.3 106 682.7 106 640 106C597.3 106 554.7 106 512 106C469.3 106 426.7 106 384 106C341.3 106 298.7 106 256 106C213.3 106 170.7 106 128 106C85.3 106 42.7 106 21.3 106L0 106Z" fill="#dc4167"></path><path d="M0 90L21.3 90C42.7 90 85.3 90 128 92.3C170.7 94.7 213.3 99.3 256 101C298.7 102.7 341.3 101.3 384 100.5C426.7 99.7 469.3 99.3 512 99.5C554.7 99.7 597.3 100.3 640 100.3C682.7 100.3 725.3 99.7 768 99.2C810.7 98.7 853.3 98.3 896 98.2C938.7 98 981.3 98 1024 98.8C1066.7 99.7 1109.3 101.3 1152 102C1194.7 102.7 1237.3 102.3 1280 102.5C1322.7 102.7 1365.3 103.3 1408 101.8C1450.7 100.3 1493.3 96.7 1536 96.2C1578.7 95.7 1621.3 98.3 1664 99.3C1706.7 100.3 1749.3 99.7 1792 98.7C1834.7 97.7 1877.3 96.3 1898.7 95.7L1920 95L1920 106L1898.7 106C1877.3 106 1834.7 106 1792 106C1749.3 106 1706.7 106 1664 106C1621.3 106 1578.7 106 1536 106C1493.3 106 1450.7 106 1408 106C1365.3 106 1322.7 106 1280 106C1237.3 106 1194.7 106 1152 106C1109.3 106 1066.7 106 1024 106C981.3 106 938.7 106 896 106C853.3 106 810.7 106 768 106C725.3 106 682.7 106 640 106C597.3 106 554.7 106 512 106C469.3 106 426.7 106 384 106C341.3 106 298.7 106 256 106C213.3 106 170.7 106 128 106C85.3 106 42.7 106 21.3 106L0 106Z" fill="#d73a67"></path><path d="M0 94L21.3 94C42.7 94 85.3 94 128 95.7C170.7 97.3 213.3 100.7 256 101.7C298.7 102.7 341.3 101.3 384 100.3C426.7 99.3 469.3 98.7 512 97.2C554.7 95.7 597.3 93.3 640 92.3C682.7 91.3 725.3 91.7 768 92.3C810.7 93 853.3 94 896 94.7C938.7 95.3 981.3 95.7 1024 96C1066.7 96.3 1109.3 96.7 1152 97.7C1194.7 98.7 1237.3 100.3 1280 100.5C1322.7 100.7 1365.3 99.3 1408 97.5C1450.7 95.7 1493.3 93.3 1536 92.2C1578.7 91 1621.3 91 1664 91C1706.7 91 1749.3 91 1792 92.7C1834.7 94.3 1877.3 97.7 1898.7 99.3L1920 101L1920 106L1898.7 106C1877.3 106 1834.7 106 1792 106C1749.3 106 1706.7 106 1664 106C1621.3 106 1578.7 106 1536 106C1493.3 106 1450.7 106 1408 106C1365.3 106 1322.7 106 1280 106C1237.3 106 1194.7 106 1152 106C1109.3 106 1066.7 106 1024 106C981.3 106 938.7 106 896 106C853.3 106 810.7 106 768 106C725.3 106 682.7 106 640 106C597.3 106 554.7 106 512 106C469.3 106 426.7 106 384 106C341.3 106 298.7 106 256 106C213.3 106 170.7 106 128 106C85.3 106 42.7 106 21.3 106L0 106Z" fill="#d13367"></path><path d="M0 102L21.3 101.5C42.7 101 85.3 100 128 99.3C170.7 98.7 213.3 98.3 256 99C298.7 99.7 341.3 101.3 384 101.3C426.7 101.3 469.3 99.7 512 99.5C554.7 99.3 597.3 100.7 640 101.3C682.7 102 725.3 102 768 102C810.7 102 853.3 102 896 101.7C938.7 101.3 981.3 100.7 1024 100.7C1066.7 100.7 1109.3 101.3 1152 101.2C1194.7 101 1237.3 100 1280 100C1322.7 100 1365.3 101 1408 100.8C1450.7 100.7 1493.3 99.3 1536 99.7C1578.7 100 1621.3 102 1664 102.5C1706.7 103 1749.3 102 1792 101.8C1834.7 101.7 1877.3 102.3 1898.7 102.7L1920 103L1920 106L1898.7 106C1877.3 106 1834.7 106 1792 106C1749.3 106 1706.7 106 1664 106C1621.3 106 1578.7 106 1536 106C1493.3 106 1450.7 106 1408 106C1365.3 106 1322.7 106 1280 106C1237.3 106 1194.7 106 1152 106C1109.3 106 1066.7 106 1024 106C981.3 106 938.7 106 896 106C853.3 106 810.7 106 768 106C725.3 106 682.7 106 640 106C597.3 106 554.7 106 512 106C469.3 106 426.7 106 384 106C341.3 106 298.7 106 256 106C213.3 106 170.7 106 128 106C85.3 106 42.7 106 21.3 106L0 106Z" fill="#cc2b68"></path><path d="M0 101L21.3 101C42.7 101 85.3 101 128 101.3C170.7 101.7 213.3 102.3 256 102.7C298.7 103 341.3 103 384 102.5C426.7 102 469.3 101 512 100.7C554.7 100.3 597.3 100.7 640 100.8C682.7 101 725.3 101 768 100.8C810.7 100.7 853.3 100.3 896 100C938.7 99.7 981.3 99.3 1024 99.7C1066.7 100 1109.3 101 1152 100.8C1194.7 100.7 1237.3 99.3 1280 99.2C1322.7 99 1365.3 100 1408 100.8C1450.7 101.7 1493.3 102.3 1536 102C1578.7 101.7 1621.3 100.3 1664 100C1706.7 99.7 1749.3 100.3 1792 100.5C1834.7 100.7 1877.3 100.3 1898.7 100.2L1920 100L1920 106L1898.7 106C1877.3 106 1834.7 106 1792 106C1749.3 106 1706.7 106 1664 106C1621.3 106 1578.7 106 1536 106C1493.3 106 1450.7 106 1408 106C1365.3 106 1322.7 106 1280 106C1237.3 106 1194.7 106 1152 106C1109.3 106 1066.7 106 1024 106C981.3 106 938.7 106 896 106C853.3 106 810.7 106 768 106C725.3 106 682.7 106 640 106C597.3 106 554.7 106 512 106C469.3 106 426.7 106 384 106C341.3 106 298.7 106 256 106C213.3 106 170.7 106 128 106C85.3 106 42.7 106 21.3 106L0 106Z" fill="#c62368"></path></svg>